<?xml version="1.0" encoding="utf-8" ?><?xml-stylesheet href="style.css" type="text/css" title="sometext" alternate="no" media="screen"?><svg baseProfile="full" xmlns="http://www.w3.org/2000/svg" xmlns:ev="http://www.w3.org/2001/xml-events" xmlns:xlink="http://www.w3.org/1999/xlink" style="font-family:Tahoma" width="10900" height="750" version="1.1"><defs /><text fill="#000000" x="5" y="20">沼平/祝山線(阿里山-祝山) 日期：20230709，運行圖均來自TDX公開資料所分析，僅供參考，正確資料與實際運轉狀況請以阿里山森林鐵路網站或公告為主。阿里山森林鐵路JSON Open Data轉檔運行圖程式版本：0.1 轉檔時間：Sun Jul  9 15:19:22 2023</text><line class="hour_line" x1="50" x2="50" y1="50" y2="700" /><text class="hour" x="50" y="49">0600 </text><text class="hour" x="50" y="549">0600 </text><line class="min10_line" x1="150" x2="150" y1="50" y2="700" /><text class="min10" x="150" y="49">10</text><text class="min10" x="150" y="549">10</text><line class="min10_line" x1="250" x2="250" y1="50" y2="700" /><text class="min10" x="250" y="49">20</text><text class="min10" x="250" y="549">20</text><line class="min30_line" x1="350" x2="350" y1="50" y2="700" /><text class="min30" x="350" y="49">30</text><text class="min30" x="350" y="549">30</text><line class="min10_line" x1="450" x2="450" y1="50" y2="700" /><text class="min10" x="450" y="49">40</text><text class="min10" x="450" y="549">40</text><line class="min10_line" x1="550" x2="550" y1="50" y2="700" /><text class="min10" x="550" y="49">50</text><text class="min10" x="550" y="549">50</text><line class="hour_line" x1="650" x2="650" y1="50" y2="700" /><text class="hour" x="650" y="49">0700 </text><text class="hour" x="650" y="549">0700 </text><line class="min10_line" x1="750" x2="750" y1="50" y2="700" /><text class="min10" x="750" y="49">10</text><text class="min10" x="750" y="549">10</text><line class="min10_line" x1="850" x2="850" y1="50" y2="700" /><text class="min10" x="850" y="49">20</text><text class="min10" x="850" y="549">20</text><line class="min30_line" x1="950" x2="950" y1="50" y2="700" /><text class="min30" x="950" y="49">30</text><text class="min30" x="950" y="549">30</text><line class="min10_line" x1="1050" x2="1050" y1="50" y2="700" /><text class="min10" x="1050" y="49">40</text><text class="min10" x="1050" y="549">40</text><line class="min10_line" x1="1150" x2="1150" y1="50" y2="700" /><text class="min10" x="1150" y="49">50</text><text class="min10" x="1150" y="549">50</text><line class="hour_line" x1="1250" x2="1250" y1="50" y2="700" /><text class="hour" x="1250" y="49">0800 </text><text class="hour" x="1250" y="549">0800 </text><line class="min10_line" x1="1350" x2="1350" y1="50" y2="700" /><text class="min10" x="1350" y="49">10</text><text class="min10" x="1350" y="549">10</text><line class="min10_line" x1="1450" x2="1450" y1="50" y2="700" /><text class="min10" x="1450" y="49">20</text><text class="min10" x="1450" y="549">20</text><line class="min30_line" x1="1550" x2="1550" y1="50" y2="700" /><text class="min30" x="1550" y="49">30</text><text class="min30" x="1550" y="549">30</text><line class="min10_line" x1="1650" x2="1650" y1="50" y2="700" /><text class="min10" x="1650" y="49">40</text><text class="min10" x="1650" y="549">40</text><line class="min10_line" x1="1750" x2="1750" y1="50" y2="700" /><text class="min10" x="1750" y="49">50</text><text class="min10" x="1750" y="549">50</text><line class="hour_line" x1="1850" x2="1850" y1="50" y2="700" /><text class="hour" x="1850" y="49">0900 </text><text class="hour" x="1850" y="549">0900 </text><line class="min10_line" x1="1950" x2="1950" y1="50" y2="700" /><text class="min10" x="1950" y="49">10</text><text class="min10" x="1950" y="549">10</text><line class="min10_line" x1="2050" x2="2050" y1="50" y2="700" /><text class="min10" x="2050" y="49">20</text><text class="min10" x="2050" y="549">20</text><line class="min30_line" x1="2150" x2="2150" y1="50" y2="700" /><text class="min30" x="2150" y="49">30</text><text class="min30" x="2150" y="549">30</text><line class="min10_line" x1="2250" x2="2250" y1="50" y2="700" /><text class="min10" x="2250" y="49">40</text><text class="min10" x="2250" y="549">40</text><line class="min10_line" x1="2350" x2="2350" y1="50" y2="700" /><text class="min10" x="2350" y="49">50</text><text class="min10" x="2350" y="549">50</text><line class="hour_line" x1="2450" x2="2450" y1="50" y2="700" /><text class="hour" x="2450" y="49">1000 </text><text class="hour" x="2450" y="549">1000 </text><line class="min10_line" x1="2550" x2="2550" y1="50" y2="700" /><text class="min10" x="2550" y="49">10</text><text class="min10" x="2550" y="549">10</text><line class="min10_line" x1="2650" x2="2650" y1="50" y2="700" /><text class="min10" x="2650" y="49">20</text><text class="min10" x="2650" y="549">20</text><line class="min30_line" x1="2750" x2="2750" y1="50" y2="700" /><text class="min30" x="2750" y="49">30</text><text class="min30" x="2750" y="549">30</text><line class="min10_line" x1="2850" x2="2850" y1="50" y2="700" /><text class="min10" x="2850" y="49">40</text><text class="min10" x="2850" y="549">40</text><line class="min10_line" x1="2950" x2="2950" y1="50" y2="700" /><text class="min10" x="2950" y="49">50</text><text class="min10" x="2950" y="549">50</text><line class="hour_line" x1="3050" x2="3050" y1="50" y2="700" /><text class="hour" x="3050" y="49">1100 </text><text class="hour" x="3050" y="549">1100 </text><line class="min10_line" x1="3150" x2="3150" y1="50" y2="700" /><text class="min10" x="3150" y="49">10</text><text class="min10" x="3150" y="549">10</text><line class="min10_line" x1="3250" x2="3250" y1="50" y2="700" /><text class="min10" x="3250" y="49">20</text><text class="min10" x="3250" y="549">20</text><line class="min30_line" x1="3350" x2="3350" y1="50" y2="700" /><text class="min30" x="3350" y="49">30</text><text class="min30" x="3350" y="549">30</text><line class="min10_line" x1="3450" x2="3450" y1="50" y2="700" /><text class="min10" x="3450" y="49">40</text><text class="min10" x="3450" y="549">40</text><line class="min10_line" x1="3550" x2="3550" y1="50" y2="700" /><text class="min10" x="3550" y="49">50</text><text class="min10" x="3550" y="549">50</text><line class="hour_line" x1="3650" x2="3650" y1="50" y2="700" /><text class="hour" x="3650" y="49">1200 </text><text class="hour" x="3650" y="549">1200 </text><line class="min10_line" x1="3750" x2="3750" y1="50" y2="700" /><text class="min10" x="3750" y="49">10</text><text class="min10" x="3750" y="549">10</text><line class="min10_line" x1="3850" x2="3850" y1="50" y2="700" /><text class="min10" x="3850" y="49">20</text><text class="min10" x="3850" y="549">20</text><line class="min30_line" x1="3950" x2="3950" y1="50" y2="700" /><text class="min30" x="3950" y="49">30</text><text class="min30" x="3950" y="549">30</text><line class="min10_line" x1="4050" x2="4050" y1="50" y2="700" /><text class="min10" x="4050" y="49">40</text><text class="min10" x="4050" y="549">40</text><line class="min10_line" x1="4150" x2="4150" y1="50" y2="700" /><text class="min10" x="4150" y="49">50</text><text class="min10" x="4150" y="549">50</text><line class="hour_line" x1="4250" x2="4250" y1="50" y2="700" /><text class="hour" x="4250" y="49">1300 </text><text class="hour" x="4250" y="549">1300 </text><line class="min10_line" x1="4350" x2="4350" y1="50" y2="700" /><text class="min10" x="4350" y="49">10</text><text class="min10" x="4350" y="549">10</text><line class="min10_line" x1="4450" x2="4450" y1="50" y2="700" /><text class="min10" x="4450" y="49">20</text><text class="min10" x="4450" y="549">20</text><line class="min30_line" x1="4550" x2="4550" y1="50" y2="700" /><text class="min30" x="4550" y="49">30</text><text class="min30" x="4550" y="549">30</text><line class="min10_line" x1="4650" x2="4650" y1="50" y2="700" /><text class="min10" x="4650" y="49">40</text><text class="min10" x="4650" y="549">40</text><line class="min10_line" x1="4750" x2="4750" y1="50" y2="700" /><text class="min10" x="4750" y="49">50</text><text class="min10" x="4750" y="549">50</text><line class="hour_line" x1="4850" x2="4850" y1="50" y2="700" /><text class="hour" x="4850" y="49">1400 </text><text class="hour" x="4850" y="549">1400 </text><line class="min10_line" x1="4950" x2="4950" y1="50" y2="700" /><text class="min10" x="4950" y="49">10</text><text class="min10" x="4950" y="549">10</text><line class="min10_line" x1="5050" x2="5050" y1="50" y2="700" /><text class="min10" x="5050" y="49">20</text><text class="min10" x="5050" y="549">20</text><line class="min30_line" x1="5150" x2="5150" y1="50" y2="700" /><text class="min30" x="5150" y="49">30</text><text class="min30" x="5150" y="549">30</text><line class="min10_line" x1="5250" x2="5250" y1="50" y2="700" /><text class="min10" x="5250" y="49">40</text><text class="min10" x="5250" y="549">40</text><line class="min10_line" x1="5350" x2="5350" y1="50" y2="700" /><text class="min10" x="5350" y="49">50</text><text class="min10" x="5350" y="549">50</text><line class="hour_line" x1="5450" x2="5450" y1="50" y2="700" /><text class="hour" x="5450" y="49">1500 </text><text class="hour" x="5450" y="549">1500 </text><line class="min10_line" x1="5550" x2="5550" y1="50" y2="700" /><text class="min10" x="5550" y="49">10</text><text class="min10" x="5550" y="549">10</text><line class="min10_line" x1="5650" x2="5650" y1="50" y2="700" /><text class="min10" x="5650" y="49">20</text><text class="min10" x="5650" y="549">20</text><line class="min30_line" x1="5750" x2="5750" y1="50" y2="700" /><text class="min30" x="5750" y="49">30</text><text class="min30" x="5750" y="549">30</text><line class="min10_line" x1="5850" x2="5850" y1="50" y2="700" /><text class="min10" x="5850" y="49">40</text><text class="min10" x="5850" y="549">40</text><line class="min10_line" x1="5950" x2="5950" y1="50" y2="700" /><text class="min10" x="5950" y="49">50</text><text class="min10" x="5950" y="549">50</text><line class="hour_line" x1="6050" x2="6050" y1="50" y2="700" /><text class="hour" x="6050" y="49">1600 </text><text class="hour" x="6050" y="549">1600 </text><line class="min10_line" x1="6150" x2="6150" y1="50" y2="700" /><text class="min10" x="6150" y="49">10</text><text class="min10" x="6150" y="549">10</text><line class="min10_line" x1="6250" x2="6250" y1="50" y2="700" /><text class="min10" x="6250" y="49">20</text><text class="min10" x="6250" y="549">20</text><line class="min30_line" x1="6350" x2="6350" y1="50" y2="700" /><text class="min30" x="6350" y="49">30</text><text class="min30" x="6350" y="549">30</text><line class="min10_line" x1="6450" x2="6450" y1="50" y2="700" /><text class="min10" x="6450" y="49">40</text><text class="min10" x="6450" y="549">40</text><line class="min10_line" x1="6550" x2="6550" y1="50" y2="700" /><text class="min10" x="6550" y="49">50</text><text class="min10" x="6550" y="549">50</text><line class="hour_line" x1="6650" x2="6650" y1="50" y2="700" /><text class="hour" x="6650" y="49">1700 </text><text class="hour" x="6650" y="549">1700 </text><line class="min10_line" x1="6750" x2="6750" y1="50" y2="700" /><text class="min10" x="6750" y="49">10</text><text class="min10" x="6750" y="549">10</text><line class="min10_line" x1="6850" x2="6850" y1="50" y2="700" /><text class="min10" x="6850" y="49">20</text><text class="min10" x="6850" y="549">20</text><line class="min30_line" x1="6950" x2="6950" y1="50" y2="700" /><text class="min30" x="6950" y="49">30</text><text class="min30" x="6950" y="549">30</text><line class="min10_line" x1="7050" x2="7050" y1="50" y2="700" /><text class="min10" x="7050" y="49">40</text><text class="min10" x="7050" y="549">40</text><line class="min10_line" x1="7150" x2="7150" y1="50" y2="700" /><text class="min10" x="7150" y="49">50</text><text class="min10" x="7150" y="549">50</text><line class="hour_line" x1="7250" x2="7250" y1="50" y2="700" /><text class="hour" x="7250" y="49">1800 </text><text class="hour" x="7250" y="549">1800 </text><line class="min10_line" x1="7350" x2="7350" y1="50" y2="700" /><text class="min10" x="7350" y="49">10</text><text class="min10" x="7350" y="549">10</text><line class="min10_line" x1="7450" x2="7450" y1="50" y2="700" /><text class="min10" x="7450" y="49">20</text><text class="min10" x="7450" y="549">20</text><line class="min30_line" x1="7550" x2="7550" y1="50" y2="700" /><text class="min30" x="7550" y="49">30</text><text class="min30" x="7550" y="549">30</text><line class="min10_line" x1="7650" x2="7650" y1="50" y2="700" /><text class="min10" x="7650" y="49">40</text><text class="min10" x="7650" y="549">40</text><line class="min10_line" x1="7750" x2="7750" y1="50" y2="700" /><text class="min10" x="7750" y="49">50</text><text class="min10" x="7750" y="549">50</text><line class="hour_line" x1="7850" x2="7850" y1="50" y2="700" /><text class="hour" x="7850" y="49">1900 </text><text class="hour" x="7850" y="549">1900 </text><line class="min10_line" x1="7950" x2="7950" y1="50" y2="700" /><text class="min10" x="7950" y="49">10</text><text class="min10" x="7950" y="549">10</text><line class="min10_line" x1="8050" x2="8050" y1="50" y2="700" /><text class="min10" x="8050" y="49">20</text><text class="min10" x="8050" y="549">20</text><line class="min30_line" x1="8150" x2="8150" y1="50" y2="700" /><text class="min30" x="8150" y="49">30</text><text class="min30" x="8150" y="549">30</text><line class="min10_line" x1="8250" x2="8250" y1="50" y2="700" /><text class="min10" x="8250" y="49">40</text><text class="min10" x="8250" y="549">40</text><line class="min10_line" x1="8350" x2="8350" y1="50" y2="700" /><text class="min10" x="8350" y="49">50</text><text class="min10" x="8350" y="549">50</text><line class="hour_line" x1="8450" x2="8450" y1="50" y2="700" /><text class="hour" x="8450" y="49">2000 </text><text class="hour" x="8450" y="549">2000 </text><line class="min10_line" x1="8550" x2="8550" y1="50" y2="700" /><text class="min10" x="8550" y="49">10</text><text class="min10" x="8550" y="549">10</text><line class="min10_line" x1="8650" x2="8650" y1="50" y2="700" /><text class="min10" x="8650" y="49">20</text><text class="min10" x="8650" y="549">20</text><line class="min30_line" x1="8750" x2="8750" y1="50" y2="700" /><text class="min30" x="8750" y="49">30</text><text class="min30" x="8750" y="549">30</text><line class="min10_line" x1="8850" x2="8850" y1="50" y2="700" /><text class="min10" x="8850" y="49">40</text><text class="min10" x="8850" y="549">40</text><line class="min10_line" x1="8950" x2="8950" y1="50" y2="700" /><text class="min10" x="8950" y="49">50</text><text class="min10" x="8950" y="549">50</text><line class="hour_line" x1="9050" x2="9050" y1="50" y2="700" /><text class="hour" x="9050" y="49">2100 </text><text class="hour" x="9050" y="549">2100 </text><line class="min10_line" x1="9150" x2="9150" y1="50" y2="700" /><text class="min10" x="9150" y="49">10</text><text class="min10" x="9150" y="549">10</text><line class="min10_line" x1="9250" x2="9250" y1="50" y2="700" /><text class="min10" x="9250" y="49">20</text><text class="min10" x="9250" y="549">20</text><line class="min30_line" x1="9350" x2="9350" y1="50" y2="700" /><text class="min30" x="9350" y="49">30</text><text class="min30" x="9350" y="549">30</text><line class="min10_line" x1="9450" x2="9450" y1="50" y2="700" /><text class="min10" x="9450" y="49">40</text><text class="min10" x="9450" y="549">40</text><line class="min10_line" x1="9550" x2="9550" y1="50" y2="700" /><text class="min10" x="9550" y="49">50</text><text class="min10" x="9550" y="549">50</text><line class="hour_line" x1="9650" x2="9650" y1="50" y2="700" /><text class="hour" x="9650" y="49">2200 </text><text class="hour" x="9650" y="549">2200 </text><line class="min10_line" x1="9750" x2="9750" y1="50" y2="700" /><text class="min10" x="9750" y="49">10</text><text class="min10" x="9750" y="549">10</text><line class="min10_line" x1="9850" x2="9850" y1="50" y2="700" /><text class="min10" x="9850" y="49">20</text><text class="min10" x="9850" y="549">20</text><line class="min30_line" x1="9950" x2="9950" y1="50" y2="700" /><text class="min30" x="9950" y="49">30</text><text class="min30" x="9950" y="549">30</text><line class="min10_line" x1="10050" x2="10050" y1="50" y2="700" /><text class="min10" x="10050" y="49">40</text><text class="min10" x="10050" y="549">40</text><line class="min10_line" x1="10150" x2="10150" y1="50" y2="700" /><text class="min10" x="10150" y="49">50</text><text class="min10" x="10150" y="549">50</text><line class="hour_line" x1="10250" x2="10250" y1="50" y2="700" /><text class="hour" x="10250" y="49">2300 </text><text class="hour" x="10250" y="549">2300 </text><line class="min10_line" x1="10350" x2="10350" y1="50" y2="700" /><text class="min10" x="10350" y="49">10</text><text class="min10" x="10350" y="549">10</text><line class="min10_line" x1="10450" x2="10450" y1="50" y2="700" /><text class="min10" x="10450" y="49">20</text><text class="min10" x="10450" y="549">20</text><line class="min30_line" x1="10550" x2="10550" y1="50" y2="700" /><text class="min30" x="10550" y="49">30</text><text class="min30" x="10550" y="549">30</text><line class="min10_line" x1="10650" x2="10650" y1="50" y2="700" /><text class="min10" x="10650" y="49">40</text><text class="min10" x="10650" y="549">40</text><line class="min10_line" x1="10750" x2="10750" y1="50" y2="700" /><text class="min10" x="10750" y="49">50</text><text class="min10" x="10750" y="549">50</text><line class="hour_line" x1="10850" x2="10850" y1="50" y2="700" /><text class="hour_midnight" x="10850" y="49">2400 隔日</text><text class="hour_midnight" x="10850" y="549">2400 隔日</text><line class="station_line" x1="50" x2="10850" y1="50.0" y2="50.0" /><text fill="#000000" x="5" y="45.0">阿里山</text><text fill="#000000" x="605" y="45.0">阿里山</text><text fill="#000000" x="1205" y="45.0">阿里山</text><text fill="#000000" x="1805" y="45.0">阿里山</text><text fill="#000000" x="2405" y="45.0">阿里山</text><text fill="#000000" x="3005" y="45.0">阿里山</text><text fill="#000000" x="3605" y="45.0">阿里山</text><text fill="#000000" x="4205" y="45.0">阿里山</text><text fill="#000000" x="4805" y="45.0">阿里山</text><text fill="#000000" x="5405" y="45.0">阿里山</text><text fill="#000000" x="6005" y="45.0">阿里山</text><text fill="#000000" x="6605" y="45.0">阿里山</text><text fill="#000000" x="7205" y="45.0">阿里山</text><text fill="#000000" x="7805" y="45.0">阿里山</text><text fill="#000000" x="8405" y="45.0">阿里山</text><text fill="#000000" x="9005" y="45.0">阿里山</text><text fill="#000000" x="9605" y="45.0">阿里山</text><text fill="#000000" x="10205" y="45.0">阿里山</text><text fill="#000000" x="10805" y="45.0">阿里山</text><text fill="#000000" x="11405" y="45.0">阿里山</text><text fill="#000000" x="12005" y="45.0">阿里山</text><text fill="#000000" x="12605" y="45.0">阿里山</text><text fill="#000000" x="13205" y="45.0">阿里山</text><text fill="#000000" x="13805" y="45.0">阿里山</text><text fill="#000000" x="14405" y="45.0">阿里山</text><text fill="#000000" x="15005" y="45.0">阿里山</text><text fill="#000000" x="15605" y="45.0">阿里山</text><text fill="#000000" x="16205" y="45.0">阿里山</text><text fill="#000000" x="16805" y="45.0">阿里山</text><text fill="#000000" x="17405" y="45.0">阿里山</text><text fill="#000000" x="18005" y="45.0">阿里山</text><line class="station_line" x1="50" x2="10850" y1="185.2" y2="185.2" /><text fill="#000000" x="5" y="180.2">沼平</text><text fill="#000000" x="605" y="180.2">沼平</text><text fill="#000000" x="1205" y="180.2">沼平</text><text fill="#000000" x="1805" y="180.2">沼平</text><text fill="#000000" x="2405" y="180.2">沼平</text><text fill="#000000" x="3005" y="180.2">沼平</text><text fill="#000000" x="3605" y="180.2">沼平</text><text fill="#000000" x="4205" y="180.2">沼平</text><text fill="#000000" x="4805" y="180.2">沼平</text><text fill="#000000" x="5405" y="180.2">沼平</text><text fill="#000000" x="6005" y="180.2">沼平</text><text fill="#000000" x="6605" y="180.2">沼平</text><text fill="#000000" x="7205" y="180.2">沼平</text><text fill="#000000" x="7805" y="180.2">沼平</text><text fill="#000000" x="8405" y="180.2">沼平</text><text fill="#000000" x="9005" y="180.2">沼平</text><text fill="#000000" x="9605" y="180.2">沼平</text><text fill="#000000" x="10205" y="180.2">沼平</text><text fill="#000000" x="10805" y="180.2">沼平</text><text fill="#000000" x="11405" y="180.2">沼平</text><text fill="#000000" x="12005" y="180.2">沼平</text><text fill="#000000" x="12605" y="180.2">沼平</text><text fill="#000000" x="13205" y="180.2">沼平</text><text fill="#000000" x="13805" y="180.2">沼平</text><text fill="#000000" x="14405" y="180.2">沼平</text><text fill="#000000" x="15005" y="180.2">沼平</text><text fill="#000000" x="15605" y="180.2">沼平</text><text fill="#000000" x="16205" y="180.2">沼平</text><text fill="#000000" x="16805" y="180.2">沼平</text><text fill="#000000" x="17405" y="180.2">沼平</text><text fill="#000000" x="18005" y="180.2">沼平</text><line class="station_noserv_line" x1="50" x2="10850" y1="351.6" y2="351.6" /><text fill="#c2c2a3" x="5" y="346.6">十字分道</text><text fill="#c2c2a3" x="605" y="346.6">十字分道</text><text fill="#c2c2a3" x="1205" y="346.6">十字分道</text><text fill="#c2c2a3" x="1805" y="346.6">十字分道</text><text fill="#c2c2a3" x="2405" y="346.6">十字分道</text><text fill="#c2c2a3" x="3005" y="346.6">十字分道</text><text fill="#c2c2a3" x="3605" y="346.6">十字分道</text><text fill="#c2c2a3" x="4205" y="346.6">十字分道</text><text fill="#c2c2a3" x="4805" y="346.6">十字分道</text><text fill="#c2c2a3" x="5405" y="346.6">十字分道</text><text fill="#c2c2a3" x="6005" y="346.6">十字分道</text><text fill="#c2c2a3" x="6605" y="346.6">十字分道</text><text fill="#c2c2a3" x="7205" y="346.6">十字分道</text><text fill="#c2c2a3" x="7805" y="346.6">十字分道</text><text fill="#c2c2a3" x="8405" y="346.6">十字分道</text><text fill="#c2c2a3" x="9005" y="346.6">十字分道</text><text fill="#c2c2a3" x="9605" y="346.6">十字分道</text><text fill="#c2c2a3" x="10205" y="346.6">十字分道</text><text fill="#c2c2a3" x="10805" y="346.6">十字分道</text><text fill="#c2c2a3" x="11405" y="346.6">十字分道</text><text fill="#c2c2a3" x="12005" y="346.6">十字分道</text><text fill="#c2c2a3" x="12605" y="346.6">十字分道</text><text fill="#c2c2a3" x="13205" y="346.6">十字分道</text><text fill="#c2c2a3" x="13805" y="346.6">十字分道</text><text fill="#c2c2a3" x="14405" y="346.6">十字分道</text><text fill="#c2c2a3" x="15005" y="346.6">十字分道</text><text fill="#c2c2a3" x="15605" y="346.6">十字分道</text><text fill="#c2c2a3" x="16205" y="346.6">十字分道</text><text fill="#c2c2a3" x="16805" y="346.6">十字分道</text><text fill="#c2c2a3" x="17405" y="346.6">十字分道</text><text fill="#c2c2a3" x="18005" y="346.6">十字分道</text><line class="station_line" x1="50" x2="10850" y1="559.6" y2="559.6" /><text fill="#000000" x="5" y="554.6">對高岳</text><text fill="#000000" x="605" y="554.6">對高岳</text><text fill="#000000" x="1205" y="554.6">對高岳</text><text fill="#000000" x="1805" y="554.6">對高岳</text><text fill="#000000" x="2405" y="554.6">對高岳</text><text fill="#000000" x="3005" y="554.6">對高岳</text><text fill="#000000" x="3605" y="554.6">對高岳</text><text fill="#000000" x="4205" y="554.6">對高岳</text><text fill="#000000" x="4805" y="554.6">對高岳</text><text fill="#000000" x="5405" y="554.6">對高岳</text><text fill="#000000" x="6005" y="554.6">對高岳</text><text fill="#000000" x="6605" y="554.6">對高岳</text><text fill="#000000" x="7205" y="554.6">對高岳</text><text fill="#000000" x="7805" y="554.6">對高岳</text><text fill="#000000" x="8405" y="554.6">對高岳</text><text fill="#000000" x="9005" y="554.6">對高岳</text><text fill="#000000" x="9605" y="554.6">對高岳</text><text fill="#000000" x="10205" y="554.6">對高岳</text><text fill="#000000" x="10805" y="554.6">對高岳</text><text fill="#000000" x="11405" y="554.6">對高岳</text><text fill="#000000" x="12005" y="554.6">對高岳</text><text fill="#000000" x="12605" y="554.6">對高岳</text><text fill="#000000" x="13205" y="554.6">對高岳</text><text fill="#000000" x="13805" y="554.6">對高岳</text><text fill="#000000" x="14405" y="554.6">對高岳</text><text fill="#000000" x="15005" y="554.6">對高岳</text><text fill="#000000" x="15605" y="554.6">對高岳</text><text fill="#000000" x="16205" y="554.6">對高岳</text><text fill="#000000" x="16805" y="554.6">對高岳</text><text fill="#000000" x="17405" y="554.6">對高岳</text><text fill="#000000" x="18005" y="554.6">對高岳</text><line class="station_line" x1="50" x2="10850" y1="700.0" y2="700.0" /><text fill="#000000" x="5" y="695.0">祝山</text><text fill="#000000" x="605" y="695.0">祝山</text><text fill="#000000" x="1205" y="695.0">祝山</text><text fill="#000000" x="1805" y="695.0">祝山</text><text fill="#000000" x="2405" y="695.0">祝山</text><text fill="#000000" x="3005" y="695.0">祝山</text><text fill="#000000" x="3605" y="695.0">祝山</text><text fill="#000000" x="4205" y="695.0">祝山</text><text fill="#000000" x="4805" y="695.0">祝山</text><text fill="#000000" x="5405" y="695.0">祝山</text><text fill="#000000" x="6005" y="695.0">祝山</text><text fill="#000000" x="6605" y="695.0">祝山</text><text fill="#000000" x="7205" y="695.0">祝山</text><text fill="#000000" x="7805" y="695.0">祝山</text><text fill="#000000" x="8405" y="695.0">祝山</text><text fill="#000000" x="9005" y="695.0">祝山</text><text fill="#000000" x="9605" y="695.0">祝山</text><text fill="#000000" x="10205" y="695.0">祝山</text><text fill="#000000" x="10805" y="695.0">祝山</text><text fill="#000000" x="11405" y="695.0">祝山</text><text fill="#000000" x="12005" y="695.0">祝山</text><text fill="#000000" x="12605" y="695.0">祝山</text><text fill="#000000" x="13205" y="695.0">祝山</text><text fill="#000000" x="13805" y="695.0">祝山</text><text fill="#000000" x="14405" y="695.0">祝山</text><text fill="#000000" x="15005" y="695.0">祝山</text><text fill="#000000" x="15605" y="695.0">祝山</text><text fill="#000000" x="16205" y="695.0">祝山</text><text fill="#000000" x="16805" y="695.0">祝山</text><text fill="#000000" x="17405" y="695.0">祝山</text><text fill="#000000" x="18005" y="695.0">祝山</text><path class="chushan1" d="M2300.0,50.0 2300.0,50.0 " id="100" /><path class="chushan1" d="M2520.0,50.0 2520.0,50.0 " id="101" /><path class="chushan1" d="M2600.0,50.0 2600.0,50.0 " id="102" /><path class="chushan1" d="M2820.0,50.0 2820.0,50.0 " id="103" /><path class="chushan1" d="M2900.0,50.0 2900.0,50.0 " id="104" /><path class="chushan1" d="M3120.0,50.0 3120.0,50.0 " id="105" /><path class="chushan1" d="M3200.0,50.0 3200.0,50.0 " id="106" /><path class="chushan1" d="M3520.0,50.0 3520.0,50.0 " id="107" /><path class="chushan1" d="M3500.0,50.0 3500.0,50.0 " id="108" /><path class="chushan1" d="M3720.0,50.0 3720.0,50.0 " id="109" /><path class="chushan1" d="M4400.0,50.0 4400.0,50.0 " id="110" /><path class="chushan1" d="M4620.0,50.0 4620.0,50.0 " id="111" /><path class="chushan1" d="M4700.0,50.0 4700.0,50.0 " id="112" /><path class="chushan1" d="M4920.0,50.0 4920.0,50.0 " id="113" /><path class="chushan1" d="M5000.0,50.0 5000.0,50.0 " id="114" /><path class="chushan1" d="M5220.0,50.0 5220.0,50.0 " id="115" /><path class="chushan1" d="M5300.0,50.0 5300.0,50.0 " id="116" /><path class="chushan1" d="M5520.0,50.0 5520.0,50.0 " id="117" /><path class="chushan1" d="M5600.0,50.0 5600.0,50.0 " id="118" /><path class="chushan1" d="M5820.0,50.0 5820.0,50.0 " id="119" /><path class="chushan1" d="M5900.0,50.0 5900.0,50.0 " id="120" /><path class="chushan1" d="M6120.0,50.0 6120.0,50.0 " id="121" /><path class="chushan1" d="M6200.0,50.0 6200.0,50.0 " id="122" /><path class="chushan1" d="M6420.0,50.0 6420.0,50.0 " id="123" /><path class="chushan1" d="M1850.0,50.0 1850.0,50.0 1910.0,185.2 1910.0,185.2 " id="31" /><text><textPath class = "chushan1" startOffset = "73.95782581985492" href = "#31"><tspan dy="-3" font-size="80%">31</tspan></textPath></text><path class="chushan1" d="M2000.0,185.2 2000.0,185.2 2060.0,50.0 2060.0,50.0 " id="32" /><text><textPath class = "chushan1" startOffset = "73.95782581985492" href = "#32"><tspan dy="-3" font-size="80%">32</tspan></textPath></text><path class="chushan1" d="M2150.0,50.0 2150.0,50.0 2210.0,185.2 2210.0,185.2 " id="33" /><text><textPath class = "chushan1" startOffset = "73.95782581985492" href = "#33"><tspan dy="-3" font-size="80%">33</tspan></textPath></text><path class="chushan1" d="M2300.0,185.2 2300.0,185.2 2360.0,50.0 2360.0,50.0 " id="34" /><text><textPath class = "chushan1" startOffset = "73.95782581985492" href = "#34"><tspan dy="-3" font-size="80%">34</tspan></textPath></text><path class="chushan1" d="M2450.0,50.0 2450.0,50.0 2510.0,185.2 2510.0,185.2 " id="35" /><text><textPath class = "chushan1" startOffset = "73.95782581985492" href = "#35"><tspan dy="-3" font-size="80%">35</tspan></textPath></text><path class="chushan1" d="M2600.0,185.2 2600.0,185.2 2660.0,50.0 2660.0,50.0 " id="36" /><text><textPath class = "chushan1" startOffset = "73.95782581985492" href = "#36"><tspan dy="-3" font-size="80%">36</tspan></textPath></text><path class="chushan1" d="M2750.0,50.0 2750.0,50.0 2810.0,185.2 2810.0,185.2 " id="37" /><text><textPath class = "chushan1" startOffset = "73.95782581985492" href = "#37"><tspan dy="-3" font-size="80%">37</tspan></textPath></text><path class="chushan1" d="M2900.0,185.2 2900.0,185.2 2960.0,50.0 2960.0,50.0 " id="38" /><text><textPath class = "chushan1" startOffset = "73.95782581985492" href = "#38"><tspan dy="-3" font-size="80%">38</tspan></textPath></text><path class="chushan1" d="M3050.0,50.0 3050.0,50.0 3110.0,185.2 3110.0,185.2 " id="39" /><text><textPath class = "chushan1" startOffset = "73.95782581985492" href = "#39"><tspan dy="-3" font-size="80%">39</tspan></textPath></text><path class="chushan1" d="M3200.0,185.2 3200.0,185.2 3260.0,50.0 3260.0,50.0 " id="40" /><text><textPath class = "chushan1" startOffset = "73.95782581985492" href = "#40"><tspan dy="-3" font-size="80%">40</tspan></textPath></text><path class="chushan1" d="M3350.0,50.0 3350.0,50.0 3410.0,185.2 3410.0,185.2 " id="41" /><text><textPath class = "chushan1" startOffset = "73.95782581985492" href = "#41"><tspan dy="-3" font-size="80%">41</tspan></textPath></text><path class="chushan1" d="M3500.0,185.2 3500.0,185.2 3560.0,50.0 3560.0,50.0 " id="42" /><text><textPath class = "chushan1" startOffset = "73.95782581985492" href = "#42"><tspan dy="-3" font-size="80%">42</tspan></textPath></text><path class="chushan1" d="M4250.0,50.0 4250.0,50.0 4310.0,185.2 4310.0,185.2 " id="43" /><text><textPath class = "chushan1" startOffset = "73.95782581985492" href = "#43"><tspan dy="-3" font-size="80%">43</tspan></textPath></text><path class="chushan1" d="M4400.0,185.2 4400.0,185.2 4460.0,50.0 4460.0,50.0 " id="44" /><text><textPath class = "chushan1" startOffset = "73.95782581985492" href = "#44"><tspan dy="-3" font-size="80%">44</tspan></textPath></text><path class="chushan1" d="M4550.0,50.0 4550.0,50.0 4610.0,185.2 4610.0,185.2 " id="45" /><text><textPath class = "chushan1" startOffset = "73.95782581985492" href = "#45"><tspan dy="-3" font-size="80%">45</tspan></textPath></text><path class="chushan1" d="M4700.0,185.2 4700.0,185.2 4760.0,50.0 4760.0,50.0 " id="46" /><text><textPath class = "chushan1" startOffset = "73.95782581985492" href = "#46"><tspan dy="-3" font-size="80%">46</tspan></textPath></text><path class="chushan1" d="M4850.0,50.0 4850.0,50.0 4910.0,185.2 4910.0,185.2 " id="47" /><text><textPath class = "chushan1" startOffset = "73.95782581985492" href = "#47"><tspan dy="-3" font-size="80%">47</tspan></textPath></text><path class="chushan1" d="M5000.0,185.2 5000.0,185.2 5060.0,50.0 5060.0,50.0 " id="48" /><text><textPath class = "chushan1" startOffset = "73.95782581985492" href = "#48"><tspan dy="-3" font-size="80%">48</tspan></textPath></text><path class="chushan1" d="M5150.0,50.0 5150.0,50.0 5210.0,185.2 5210.0,185.2 " id="49" /><text><textPath class = "chushan1" startOffset = "73.95782581985492" href = "#49"><tspan dy="-3" font-size="80%">49</tspan></textPath></text><path class="chushan1" d="M5300.0,185.2 5300.0,185.2 5360.0,50.0 5360.0,50.0 " id="50" /><text><textPath class = "chushan1" startOffset = "73.95782581985492" href = "#50"><tspan dy="-3" font-size="80%">50</tspan></textPath></text><path class="chushan1" d="M5450.0,50.0 5450.0,50.0 5510.0,185.2 5510.0,185.2 " id="51" /><text><textPath class = "chushan1" startOffset = "73.95782581985492" href = "#51"><tspan dy="-3" font-size="80%">51</tspan></textPath></text><path class="chushan1" d="M5600.0,185.2 5600.0,185.2 5660.0,50.0 5660.0,50.0 " id="52" /><text><textPath class = "chushan1" startOffset = "73.95782581985492" href = "#52"><tspan dy="-3" font-size="80%">52</tspan></textPath></text><path class="chushan1" d="M5750.0,50.0 5750.0,50.0 5810.0,185.2 5810.0,185.2 " id="53" /><text><textPath class = "chushan1" startOffset = "73.95782581985492" href = "#53"><tspan dy="-3" font-size="80%">53</tspan></textPath></text><path class="chushan1" d="M5900.0,185.2 5900.0,185.2 5960.0,50.0 5960.0,50.0 " id="54" /><text><textPath class = "chushan1" startOffset = "73.95782581985492" href = "#54"><tspan dy="-3" font-size="80%">54</tspan></textPath></text></svg>